<svg 
 xmlns="http://www.w3.org/2000/svg"
 xmlns:xlink="http://www.w3.org/1999/xlink"
 width="16px" height="16px">
<path fill-rule="evenodd"  fill="#18cfab"
 d="M15.500,5.999 L10.000,5.999 L10.000,0.499 C10.000,0.223 9.776,-0.001 9.500,-0.001 L6.500,-0.001 C6.224,-0.001 6.000,0.223 6.000,0.499 L6.000,5.999 L0.500,5.999 C0.224,5.999 0.000,6.223 0.000,6.499 L0.000,9.499 C0.000,9.775 0.224,9.999 0.500,9.999 L6.000,9.999 L6.000,15.500 C6.000,15.775 6.224,15.999 6.500,15.999 L9.500,15.999 C9.776,15.999 10.000,15.775 10.000,15.500 L10.000,9.999 L15.500,9.999 C15.776,9.999 16.000,9.775 16.000,9.499 L16.000,6.499 C16.000,6.223 15.776,5.999 15.500,5.999 Z"/>
</svg>