<svg xmlns="http://www.w3.org/2000/svg" width="44" height="30" viewBox="0 0 44 30"><g><g><path fill="#18cfab" d="M9.658 10.904c5.311 0 9.616 4.274 9.616 9.546 0 5.27-4.305 9.545-9.616 9.545-5.31 0-9.615-4.274-9.615-9.545L0 19.086C0 8.543 8.61-.004 19.231-.004v5.453c-3.669 0-7.119 1.418-9.713 3.994a13.78 13.78 0 0 0-1.366 1.58 9.765 9.765 0 0 1 1.506-.119zm24.726 0c5.31 0 9.616 4.274 9.616 9.546 0 5.27-4.305 9.545-9.616 9.545-5.31 0-9.615-4.274-9.615-9.545l-.043-1.364c0-10.543 8.61-19.09 19.231-19.09v5.453c-3.67 0-7.119 1.418-9.713 3.994a13.78 13.78 0 0 0-1.367 1.58 9.767 9.767 0 0 1 1.507-.119z"/></g></g></svg>